<?xml version="1.0" encoding="utf-8"?>
<!-- Generator: Adobe Illustrator 23.0.1, SVG Export Plug-In . SVG Version: 6.00 Build 0)  -->
<svg version="1.1" id="Layer_1" xmlns="http://www.w3.org/2000/svg" xmlns:xlink="http://www.w3.org/1999/xlink" x="0px" y="0px"
	 viewBox="0 0 551 110" style="enable-background:new 0 0 551 110;" xml:space="preserve">
<style type="text/css">
	.st0{fill:#E50914;}
</style>
<g>
	<g>
		<path class="st0" d="M-141.83-317.65c8.61-0.02,12.92-0.03,21.53-0.04c5.46,20.83,11,41.63,16.6,62.42
			c0.12-0.01,0.19-0.01,0.31-0.02c0.03-20.81,0.06-41.62,0.09-62.43c6.12-0.01,9.17-0.02,15.29-0.02
			c-0.06,34.19-0.12,68.37-0.19,102.56c-7.04,0.78-10.55,1.19-17.58,2.04c-6.94-25.17-13.76-50.37-20.47-75.61
			c-0.12,0-0.19,0.01-0.31,0.01c-0.02,26.08-0.03,52.15-0.05,78.23c-6.09,0.8-9.13,1.22-15.22,2.07
			C-141.83-244.85-141.83-281.25-141.83-317.65z"/>
		<path class="st0" d="M-69.45-317.77c6.86-0.01,10.3-0.01,17.16-0.02c-0.08,33-0.16,66-0.24,99c-6.86,0.63-10.29,0.96-17.14,1.65
			C-69.59-250.69-69.52-284.23-69.45-317.77z"/>
		<path class="st0" d="M-35-242.88c0.04-17.46,0.09-34.91,0.13-52.37c0.15-14.18,11.14-24.54,25.33-23.96
			c12.76,0.53,26.41,8.26,25.22,23.12c-0.01,3.98-0.01,5.97-0.02,9.95c-6.49,0.12-9.74,0.19-16.23,0.33c0.01-4.4,0.02-6.6,0.03-11
			c0.02-6.24-3.41-8.79-8.56-8.74c-5.15,0.05-8.59,2.7-8.6,9.02c-0.04,17.91-0.09,35.82-0.13,53.73c-0.02,6.32,3.41,8.57,8.56,8.26
			c5.15-0.31,8.59-2.94,8.61-9.18c0.01-5.81,0.02-8.72,0.04-14.53c6.49-0.26,9.74-0.38,16.24-0.61c-0.01,5.32-0.02,7.98-0.03,13.31
			c1.03,14.9-12.57,23.23-25.35,24.7C-23.77-219.24-34.98-228.74-35-242.88z"/>
		<path class="st0" d="M31.79-317.88c15.6-0.01,31.2-0.02,46.8-0.02c-0.01,5.24-0.01,7.86-0.01,13.1
			c-9.88,0.03-19.77,0.08-29.65,0.13c-0.02,9.79-0.02,14.68-0.04,24.46c9.43-0.15,14.15-0.21,23.58-0.3
			c-0.01,5.25-0.01,7.87-0.02,13.12c-9.43,0.13-14.15,0.21-23.58,0.41c-0.02,9.48-0.03,18.95-0.05,28.43
			c9.9-0.32,19.8-0.57,29.7-0.75c-0.01,5.24-0.01,7.86-0.01,13.1c-15.64,0.32-31.27,0.88-46.9,1.59
			C31.67-255.7,31.73-286.79,31.79-317.88z"/>
		<path class="st0" d="M94.2-317.9c10.11,0,15.16,0,25.27,0c13.28-0.04,26.87,7.45,25.6,22.61c0,3.61,0,5.41,0.01,9.02
			c1.31,15.19-12.36,22.55-25.61,22.49c-3.25,0-4.87,0-8.12,0.01c0,12.39,0,24.78-0.01,37.17c-6.88,0.03-10.32,0.06-17.2,0.15
			C94.16-256.94,94.18-287.42,94.2-317.9z M119.47-276.83c5.47,0,8.43-2.08,8.43-8.6c0-4.33,0-6.5,0-10.83
			c0-6.52-2.97-8.61-8.43-8.61c-3.25,0-4.87,0-8.12,0c0,9.35,0,18.69-0.01,28.04C114.6-276.83,116.22-276.83,119.47-276.83z"/>
		<path class="st0" d="M160.18-317.9c6.86,0,10.3,0,17.16,0.01c0.05,30.73,0.09,61.46,0.14,92.2c-6.88-0.22-10.32-0.31-17.2-0.46
			C160.25-256.74,160.22-287.32,160.18-317.9z"/>
		<path class="st0" d="M194.94-246.54c-0.03-16.62-0.06-33.24-0.09-49.86c0.11-13.99,11.6-23.34,25.23-22.81
			c13,0.51,26.44,8.51,25.33,23.47c0.01,4.04,0.01,6.06,0.02,10.1c-6.49-0.15-9.74-0.22-16.23-0.36c-0.01-4.37-0.02-6.56-0.03-10.94
			c-0.01-6.21-3.45-8.81-8.6-8.85c-5.15-0.04-8.58,2.48-8.56,8.63c0.04,17.43,0.07,34.85,0.11,52.28c0.01,6.15,3.46,8.7,8.61,8.95
			c5.15,0.25,8.58-2,8.57-8.21c-0.01-5.78-0.02-8.67-0.03-14.45c6.49,0.24,9.74,0.37,16.23,0.65c0.01,5.4,0.02,8.11,0.03,13.51
			c1.29,15-12.42,22.16-25.24,21.9C206.62-222.79,195.14-232.44,194.94-246.54z"/>
		<path class="st0" d="M261.43-317.83c6.86,0.01,10.3,0.01,17.16,0.02c0.03,13.77,0.07,27.55,0.1,41.32
			c7.35-13.71,14.61-27.47,21.74-41.29c6.86,0.01,10.3,0.01,17.16,0.02c-6.71,12.24-13.47,24.44-20.35,36.58
			c7.07,21.7,14.03,43.43,20.86,65.21c-7.16-0.77-10.75-1.13-17.91-1.83c-4.8-15.13-9.67-30.24-14.6-45.32
			c-2.73,4.88-4.1,7.3-6.83,12.13c0.03,10.41,0.05,20.82,0.08,31.24c-6.86-0.59-10.29-0.87-17.16-1.39
			C261.59-253.37,261.51-285.6,261.43-317.83z"/>
		<path class="st0" d="M327.86-239.28c0-2.35-0.01-3.53-0.01-5.88c6.48,0.52,9.72,0.79,16.19,1.34c0,2.87,0.01,4.31,0.01,7.18
			c0.01,7.48,3.44,10.53,8.88,11.13s8.78-1.83,8.86-9.7c0.09-10.3-7.16-18.84-14.65-25.16c-10.05-8.48-19.01-19.7-19.06-33.28
			c-0.05-14.36,10.7-26.11,25.54-25.57c15.47,0.56,25.36,11.7,24.96,27.45c0,1.81,0,2.71,0,4.52c-6.48-0.26-9.72-0.39-16.2-0.63
			c0-2.2,0-3.3,0-5.5c-0.01-7.64-3.13-10.61-8.58-10.7c-5.46-0.1-8.55,2.72-8.56,9.89c-0.01,9.72,8.18,17.61,14.83,23.45
			c10.26,9.01,18.97,21.98,18.84,36.08c-0.15,15.41-10.01,26.22-25.79,24.28C337.58-212.28,327.91-223.85,327.86-239.28z"/>
	</g>
</g>
<g>
	<g>
		<path class="st0" d="M-0.27,0.46c8.61-0.02,12.92-0.03,21.53-0.04c5.46,20.82,10.99,41.62,16.6,62.41
			c0.12-0.01,0.19-0.01,0.31-0.02C38.2,42,38.23,21.2,38.26,0.39c6.12-0.01,9.17-0.02,15.29-0.03
			c-0.06,34.17-0.13,68.35-0.19,102.52c-7.04,0.79-10.55,1.2-17.58,2.06c-6.94-25.17-13.76-50.36-20.47-75.59
			c-0.12,0-0.19,0.01-0.31,0.01c-0.02,26.08-0.03,52.15-0.05,78.23c-6.09,0.81-9.13,1.22-15.22,2.08
			C-0.27,73.27-0.27,36.86-0.27,0.46z"/>
		<path class="st0" d="M72.11,0.34c15.6-0.02,31.2-0.04,46.8-0.06c-0.01,5.51-0.02,8.26-0.04,13.76c-9.88,0.12-19.76,0.25-29.64,0.4
			c-0.03,10.45-0.04,15.68-0.07,26.13c9.42-0.37,14.13-0.54,23.55-0.86c-0.01,5.53-0.02,8.3-0.04,13.83
			c-9.42,0.43-14.13,0.66-23.55,1.16c-0.03,10.12-0.05,20.25-0.08,30.37c9.87-0.81,19.75-1.54,29.63-2.21
			c-0.01,5.51-0.02,8.26-0.04,13.76c-15.61,1.22-31.2,2.67-46.77,4.27C71.96,67.37,72.03,33.85,72.11,0.34z"/>
		<path class="st0" d="M149.83,46.25c-6.33-15.3-12.57-30.63-18.76-45.98c7.24-0.01,10.86-0.01,18.1-0.02
			c3.81,10.07,7.62,20.13,11.47,30.18c0.13,0,0.19,0,0.31-0.01c3.96-10.07,7.94-20.14,11.93-30.19c6.49,0,9.73-0.01,16.22-0.01
			c-6.38,15.13-12.71,30.28-18.98,45.44c6.52,15.56,13.1,31.09,19.73,46.6c-7.25,0.31-10.88,0.49-18.13,0.87
			c-4.15-10.64-8.29-21.28-12.42-31.93c-0.12,0-0.19,0.01-0.31,0.01c-4.33,11.13-8.63,22.27-12.89,33.42
			c-6.5,0.42-9.74,0.65-16.23,1.13C136.46,79.23,143.12,62.73,149.83,46.25z"/>
		<path class="st0" d="M217.32,13.21c-7.18,0.03-10.77,0.05-17.95,0.09c0.01-5.24,0.01-7.86,0.02-13.1
			c17.68-0.01,35.36-0.02,53.04-0.02c0,5.16,0,7.74-0.01,12.91c-7.18,0.01-10.77,0.02-17.95,0.05c-0.03,25.9-0.06,51.8-0.08,77.69
			c-6.88,0.14-10.32,0.23-17.2,0.43C217.25,65.25,217.28,39.23,217.32,13.21z"/>
		<path class="st0" d="M266.48,0.19c10.11,0,15.16,0,25.27,0c13.18-0.04,26.87,7.29,25.61,22.41c0,3.57,0.01,5.36,0.01,8.94
			c1.32,15.15-12.47,22.3-25.6,22.18c-3.25-0.02-4.87-0.02-8.12-0.03c0,12.25,0.01,24.49,0.01,36.74c-6.88-0.03-10.32-0.03-17.2,0
			C266.47,60.35,266.48,30.27,266.48,0.19z M291.78,40.82c5.47,0.02,8.43-2.03,8.43-8.48c0-4.29,0-6.43-0.01-10.72
			c0-6.46-2.97-8.53-8.43-8.53c-3.25,0-4.87-0.01-8.12-0.01c0,11.09,0,16.63,0.01,27.72C286.9,40.81,288.53,40.81,291.78,40.82z"/>
		<path class="st0" d="M332.47,0.2c6.86,0,10.3,0,17.16,0.01c0.06,30.53,0.11,61.07,0.17,91.6c-6.88-0.26-10.32-0.37-17.2-0.57
			C332.56,60.89,332.52,30.55,332.47,0.2z"/>
		<path class="st0" d="M367.26,71.18c-0.04-16.53-0.07-33.06-0.11-49.59C367.26,7.61,378.8-1.63,392.37-1.1
			c12.97,0.51,26.44,8.46,25.34,23.41c0.01,4.03,0.02,6.04,0.03,10.07c-6.49-0.16-9.74-0.24-16.23-0.38
			c-0.01-4.36-0.02-6.54-0.03-10.9c-0.02-6.19-3.46-8.78-8.6-8.82c-5.15-0.04-8.58,2.46-8.56,8.58c0.04,17.35,0.08,34.7,0.13,52.05
			c0.01,6.12,3.46,8.68,8.61,8.95c5.15,0.27,8.58-1.96,8.57-8.15c-0.01-5.76-0.02-8.64-0.04-14.4c6.49,0.26,9.74,0.4,16.23,0.7
			c0.01,5.39,0.02,8.08,0.04,13.47c1.3,14.99-12.45,22.05-25.23,21.73C378.99,94.87,367.47,85.26,367.26,71.18z"/>
		<path class="st0" d="M433.72,0.28c6.86,0.01,10.3,0.01,17.16,0.02c0.04,13.75,0.07,27.51,0.11,41.26
			c7.33-13.7,14.57-27.44,21.73-41.23c6.86,0.01,10.3,0.01,17.16,0.03c-6.71,12.22-13.46,24.42-20.35,36.54
			c7.07,21.69,14.03,43.42,20.87,65.19c-7.16-0.78-10.74-1.15-17.91-1.87c-4.8-15.12-9.67-30.22-14.61-45.3
			c-2.73,4.87-4.1,7.29-6.83,12.1c0.03,10.4,0.05,20.79,0.08,31.19c-6.86-0.61-10.29-0.9-17.16-1.45
			C433.89,64.6,433.8,32.44,433.72,0.28z"/>
		<path class="st0" d="M500.15,78.8c0-2.35-0.01-3.53-0.01-5.88c6.48,0.52,9.72,0.8,16.19,1.36c0,2.87,0.01,4.31,0.01,7.18
			c0.01,7.48,3.44,10.53,8.88,11.13c5.44,0.6,8.78-1.83,8.86-9.69c0.09-10.3-7.16-18.84-14.65-25.16
			c-10.05-8.48-19.01-19.71-19.06-33.28c-0.05-14.35,10.7-26.1,25.54-25.57c15.47,0.56,25.36,11.7,24.96,27.45c0,1.81,0,2.71,0,4.52
			c-6.48-0.26-9.72-0.39-16.2-0.63c0-2.2,0-3.3,0-5.5c-0.01-7.64-3.13-10.61-8.58-10.7c-5.46-0.1-8.55,2.71-8.56,9.88
			c-0.01,9.72,8.18,17.62,14.83,23.46c10.26,9.01,18.97,21.99,18.84,36.09c-0.15,15.4-10,26.23-25.79,24.27
			C509.87,105.81,500.21,94.23,500.15,78.8z"/>
	</g>
</g>
</svg>
